/* XPM */
static const char *Idle_06_flip[] = {
/* columns rows colors chars-per-pixel */
"32 29 12 1 ",
"  c #92A9CE",
". c #33323D",
"X c #E39BBA",
"o c #F1C5CC",
"O c #B36AA0",
"+ c #DE5050",
"@ c #F18770",
"# c #B43B6A",
"$ c #639D6D",
"% c white",
"& c #EED878",
"* c #407769",
/* pixels */
"                                ",
"                                ",
"                                ",
"                                ",
"                                ",
"         ....                   ",
"        .XXXX..                 ",
"        .XXXXXX.                ",
"         ..XoXXX.               ",
"         .OXXXXXX.              ",
"         .OXXXooX.              ",
"        .OXXXXooXX.             ",
"        .OXXoXXXXX.             ",
"       ..OXXXXXXXXX.   ...      ",
"     .....OXXXXXXXO....XXX.     ",
"   ..XXXXXXXXXXXXXXXXXoXXX.     ",
"  .XXXoXXO.........XXXXXX.      ",
" .XXXXXXO.+++@+@@++.XXOO.       ",
".XXXOOOOO.+.......+.XO..        ",
".OOO...OO.#########.X.          ",
" ... .OOOO.........XX.          ",
"     .OOOXXXXXXXXXXXO.          ",
"     .OOOOOOO....OOO...         ",
"      .......&&&%...$$$.        ",
"      .***$$*********$$.        ",
"       .**$.........OO.         ",
"       ..**.       ...          ",
"       .OO.                     ",
"       ...                      "
};
