/* XPM */
static const char *Idle_08_flip[] = {
/* columns rows colors chars-per-pixel */
"32 29 12 1 ",
"  c #92A9CE",
". c #33323D",
"X c #E39BBA",
"o c #F1C5CC",
"O c #B36AA0",
"+ c #DE5050",
"@ c #F18770",
"# c #B43B6A",
"$ c white",
"% c #EED878",
"& c #639D6D",
"* c #407769",
/* pixels */
"                                ",
"                                ",
"                                ",
"                                ",
"            ..                  ",
"           .XX..                ",
"           .XXXX.               ",
"           ..XXXX.              ",
"           .OXoXXX.             ",
"           .OXXXXXX.            ",
"           .OXXXooX.            ",
"          .OXXXXooXX.           ",
"          .OXXoXXXXX.           ",
"         ..OXXXXXXXXX.          ",
"   .........OXXXXXXXO...        ",
"  .XXXXXXXXXXXXXXXXXXXXX..      ",
"  .OOXXXoXXO.........XXXoX..    ",
"   ..OOXXXO.+++@+@@++.XXXXXX.   ",
"     ..OOOO.+.......+.XOOXXX.   ",
"       ..OO.#########.X.....    ",
"       .OOOO.........XX.        ",
"       .OOOXXXXXXXXXXXX.        ",
"       .OOOOOOO....OOOO.        ",
"       ........%%%$.....        ",
"       .**&&&&*****&&&&.        ",
"       .**&..........&&.        ",
"       ..**.       .***.        ",
"       .OO.        .OO.         ",
"       ...         ...          "
};
