/* XPM */
static const char *Run_01[] = {
/* columns rows colors chars-per-pixel */
"32 29 12 1 ",
"  c #92A9CE",
". c #33323D",
"X c #E39BBA",
"o c #F1C5CC",
"O c #B36AA0",
"+ c #DE5050",
"@ c #F18770",
"# c #B43B6A",
"$ c #639D6D",
"% c white",
"& c #EED878",
"* c #407769",
/* pixels */
"                                ",
"                                ",
"                                ",
"                 ....           ",
"               ..XXXX.          ",
"              .XXXXXX.          ",
"             .XXXoX..           ",
"            .XXXXXXO.           ",
"            .XooXXXO.           ",
"           .XXooXXXXO.          ",
"           .XXXXXoXXO.          ",
"    ...   .XXXXXXXXXO..   ...   ",
"   .XXX....OXXXXXXXO......XXX.  ",
"   .XXXoXXXXXXXXXXXXXXXXXXXXO.  ",
"    .XXXXXX.........OXXoXXXO.   ",
"     .OOXX.++@@+@+++.OXXXOO.    ",
"      ..OX.+.......+.OOOO..     ",
"        .X.#########.OO..       ",
"        .XX.........OOOO.       ",
"        .OXXXXXXXXXXXOOO.       ",
"        ..OOO....OOOOOOO.       ",
"       .$$...%&&&........       ",
"       .$$$$$*****$$$$**.       ",
"       .$*...........$***.      ",
"       .OO.          ..OO.      ",
"       ...             ...      ",
"                                ",
"                                ",
"                                "
};
