/* XPM */
static const char *Jump_01[] = {
/* columns rows colors chars-per-pixel */
"26 28 11 1 ",
"  c #33323D",
". c #D06C63",
"X c #CD897C",
"o c #DE9970",
"O c #EED878",
"+ c #68538A",
"@ c #7B7BAB",
"# c #EEBC9D",
"$ c #EAC088",
"% c white",
"& c #92A9CE",
/* pixels */
"&&&&&&&&&&&&&&&&&&&&&&&&&&",
"&&&&&&&            &&&&&&&",
"&&&&&& ++         @ &&&&&&",
"&&&&& ++ %%%%%%%%% @ &&&&&",
"&&&&& ++ %   %   % @ &&&&&",
"&&&&& ++ %   %   % @ &&&&&",
"&&&&& ++@ %%%%%%% @@ &&&&&",
"&&&&& ++@ %++%++% @@ &&&&&",
"&  && ++@@@@@@@@@@@@ &&  &",
" @@    +++@@@@@@@+@++  @@ ",
" @ @@@@@@@@@@@@@@@@@@@@ @ ",
" @@@                  @@@ ",
"           .......        ",
" ++  X %% .oooooooo X  ++ ",
"&    X    .oo$$$$oo #    &",
"&&&& X % % .oooooo ##   &&",
"&&&& XX   X       ### X# &",
"&&&  XX#############X  # &",
"&& o. XXXXXXXXXXXXXX  .  &",
"& ooo.              .  &&&",
" #  . .....      ...  &&&&",
" ###       OOOOO%   @@ &&&",
"&    ++@@@+++++++@@@@@ &&&",
"&&&& ++@@           +@ &&&",
"&&&& +@@ &&&&&&&&& XX &&&&",
"&&&&  ++ &&&&&&&&&   &&&&&",
"&&&& XX &&&&&&&&&&&&&&&&&&",
"&&&&   &&&&&&&&&&&&&&&&&&&"
};
