/* XPM */
static const char *Jump_02_flip[] = {
/* columns rows colors chars-per-pixel */
"24 31 11 1 ",
"  c #92A9CE",
". c #33323D",
"X c #68538A",
"o c #7B7BAB",
"O c white",
"+ c #D06C63",
"@ c #CD897C",
"# c #DE9970",
"$ c #EEBC9D",
"% c #EAC088",
"& c #EED878",
/* pixels */
"        ........        ",
"       .o.....XX.       ",
"      .o.OOOOO.XX.      ",
"      .o.O.O.O.XX.      ",
"      .o.O.O.O.XX.      ",
"      .oo.OOO.oXX.      ",
"      .oo.OXO.oXX.      ",
"  ..  .ooooooooXX.  ..  ",
" .oo..XXoXoooXXX....oo. ",
" .o.oooooooooooooooo.o. ",
" .ooo..............ooo. ",
" ........+++........... ",
" .XX..@.####+...@@..XX. ",
"  ....$.####+.OO.@....  ",
"     .$.#%%#+....@.     ",
"     .$.####+....@.     ",
"   ...$$.##+.O.O.@.     ",
"  .$@.$$$...@...@@.     ",
"  .$..@$$$$$$$$$@@..    ",
"  ..+..@@@@@@@@@@.+#.   ",
"   .+.+..........+###.  ",
"   .+.#+++++++++++###.  ",
"    ..#########+++###.. ",
"     ..###..###++.+..$. ",
"    .oo...O&.......$$$. ",
"    .oooooXXXoooXX....  ",
"    .oX.......ooXX.     ",
"     .@@.     .ooX.     ",
"      ...     .XX..     ",
"               .@@.     ",
"                ...     "
};
