/* XPM */
static const char *Jump_02[] = {
/* columns rows colors chars-per-pixel */
"24 31 11 1 ",
"  c #33323D",
". c #D06C63",
"X c #CD897C",
"o c #DE9970",
"O c #EED878",
"+ c #68538A",
"@ c #7B7BAB",
"# c #EEBC9D",
"$ c #EAC088",
"% c white",
"& c #92A9CE",
/* pixels */
"&&&&&&&&        &&&&&&&&",
"&&&&&&& ++     @ &&&&&&&",
"&&&&&& ++ %%%%% @ &&&&&&",
"&&&&&& ++ % % % @ &&&&&&",
"&&&&&& ++ % % % @ &&&&&&",
"&&&&&& ++@ %%% @@ &&&&&&",
"&&&&&& ++@ %+% @@ &&&&&&",
"&&  && ++@@@@@@@@ &&  &&",
"& @@    +++@@@+@++  @@ &",
"& @ @@@@@@@@@@@@@@@@ @ &",
"& @@@              @@@ &",
"&           ...        &",
"& ++  XX   .oooo X  ++ &",
"&&    X %% .oooo #    &&",
"&&&&& X    .o$$o # &&&&&",
"&&&&& X    .oooo # &&&&&",
"&&&&& X % % .oo ##   &&&",
"&&&&& XX   X   ### X# &&",
"&&&&  XX#########X  # &&",
"&&& o. XXXXXXXXXX  .  &&",
"&& ooo.          . . &&&",
"&& ooo...........o . &&&",
"&  ooo...ooooooooo  &&&&",
"& #  . ..ooo  ooo  &&&&&",
"& ###       O%   @@ &&&&",
"&&    ++@@@+++@@@@@ &&&&",
"&&&&& ++@@       +@ &&&&",
"&&&&& +@@ &&&&& XX &&&&&",
"&&&&&  ++ &&&&&   &&&&&&",
"&&&&& XX &&&&&&&&&&&&&&&",
"&&&&&   &&&&&&&&&&&&&&&&"
};
