/* XPM */
static const char *Jump_03[] = {
/* columns rows colors chars-per-pixel */
"24 29 11 1 ",
"  c #33323D",
". c #D06C63",
"X c #CD897C",
"o c #DE9970",
"O c #EED878",
"+ c #68538A",
"@ c #7B7BAB",
"# c #EEBC9D",
"$ c #EAC088",
"% c white",
"& c #92A9CE",
/* pixels */
"&&&&&&&          &&&&&&&",
"&&&&&& ++       @ &&&&&&",
"&&&&& ++ %%%%%%% @ &&&&&",
"&&&&& ++ %  %  % @ &&&&&",
"&&&&& ++ %  %  % @ &&&&&",
"&&&&& ++@ %%%%% @@ &&&&&",
"&&&&& ++@ %+%+% @@ &&&&&",
"&  && ++@@@@@@@@@@ &&  &",
" @@    +++@@@@@+@++  @@ ",
" @ @@@@@@@@@@@@@@@@@@ @ ",
" @@@                @@@ ",
"           .....        ",
" ++  XX   .oooooo X  ++ ",
"&    X %% .oooooo #    &",
"&&&& X    .oo$$oo # &&&&",
"&&&& X % % .oooo ##   &&",
"&&&& XX   X     ### X# &",
"&&&  XX###########X  # &",
"&& o. XXXXXXXXXXXX  .  &",
"& ooo.            . . &&",
"  ooo.............o  &&&",
" #  . ..ooo    ooo  &&&&",
" ###       OOO%   @@ &&&",
"&    ++@@@+++++@@@@@ &&&",
"&&&& ++@@         +@ &&&",
"&&&& +@@ &&&&&&& XX &&&&",
"&&&&  ++ &&&&&&&   &&&&&",
"&&&& XX &&&&&&&&&&&&&&&&",
"&&&&   &&&&&&&&&&&&&&&&&"
};
