/* XPM */
static const char *Jump_03_flip[] = {
/* columns rows colors chars-per-pixel */
"24 29 11 1 ",
"  c #92A9CE",
". c #33323D",
"X c #68538A",
"o c #7B7BAB",
"O c white",
"+ c #D06C63",
"@ c #CD897C",
"# c #DE9970",
"$ c #EEBC9D",
"% c #EAC088",
"& c #EED878",
/* pixels */
"       ..........       ",
"      .o.......XX.      ",
"     .o.OOOOOOO.XX.     ",
"     .o.O..O..O.XX.     ",
"     .o.O..O..O.XX.     ",
"     .oo.OOOOO.oXX.     ",
"     .oo.OXOXO.oXX.     ",
" ..  .ooooooooooXX.  .. ",
".oo..XXoXoooooXXX....oo.",
".o.oooooooooooooooooo.o.",
".ooo................ooo.",
"........+++++...........",
".XX..@.######+...@@..XX.",
" ....$.######+.OO.@.... ",
"    .$.##%%##+....@.    ",
"  ...$$.####+.O.O.@.    ",
" .$@.$$$.....@...@@.    ",
" .$..@$$$$$$$$$$$@@..   ",
" ..+..@@@@@@@@@@@@.+#.  ",
"  .+.+............+###. ",
"   ..#+++++++++++++###..",
"    ..###....###++.+..$.",
"   .oo...O&&&.......$$$.",
"   .oooooXXXXXoooXX.... ",
"   .oX.........ooXX.    ",
"    .@@.       .ooX.    ",
"     ...       .XX..    ",
"                .@@.    ",
"                 ...    "
};
