/* XPM */
static const char *Idle_05[] = {
/* columns rows colors chars-per-pixel */
"24 28 11 1 ",
"  c #92A9CE",
". c #33323D",
"X c #68538A",
"o c #7B7BAB",
"O c white",
"+ c #D06C63",
"@ c #CD897C",
"# c #DE9970",
"$ c #EAC088",
"% c #EEBC9D",
"& c #EED878",
/* pixels */
"       ..........       ",
"      .XXoooooooo.      ",
"     .XXo.......oo.     ",
"     .XX.OOOOOOO.o.     ",
"     .XX.O..O..O.o.     ",
"     .XX.O..O..O.o.     ",
"     .XXo.OOOOO.oo.     ",
"     .XXo.OXOXO.oo.     ",
"     .XXoooooooooo.     ",
"...  .XXoooooooooo.  ...",
".oo....XXXoooooXoXX..oo.",
".o.oooooooooooooooooo.o.",
".ooo................ooo.",
" ..........+++++....... ",
"    .@.OO.+######.@.    ",
"    .@....+##$$##.%.    ",
"    .@.O.O.+####.%%.    ",
"   ..@@...@.....%%%.    ",
"  .++.@@@@%%%%%%%%...   ",
" .###+............+.+.  ",
" .###+++++++++++++#.+.  ",
" ....+++###....####...  ",
" .%%%......&&&O.....@.  ",
"  ...XXoooXXXXXoooo..   ",
"    .XXo.........oo.    ",
"    ..XX.      .XXX.    ",
"    .@@.       .@@.     ",
"    ...        ...      "
};
