/* XPM */
static const char *Idle_02[] = {
/* columns rows colors chars-per-pixel */
"24 28 11 1 ",
"  c #92A9CE",
". c #33323D",
"X c #68538A",
"o c #7B7BAB",
"O c white",
"+ c #D06C63",
"@ c #CD897C",
"# c #DE9970",
"$ c #EAC088",
"% c #EEBC9D",
"& c #EED878",
/* pixels */
"                        ",
"       ..........       ",
"      .ooooooooXX.      ",
"     .oo.......oXX.     ",
"     .o.OOOOOOO.XX.     ",
"     .o.O..O..O.XX.     ",
"     .o.O..O..O.XX.     ",
"     .oo.OOOOO.oXX.     ",
"     .oo.OXOXO.oXX.     ",
" ... .ooooooooooXX. ... ",
".oo. .ooooooooooXX. .oo.",
".o...XXoXoooooXXX.....o.",
".oooooooooooooooooooooo.",
" ...................... ",
"    ....+++++.......    ",
"    .@.######+.OO.@.    ",
"    .%.##$$##+....@.    ",
"    .%%.####+.O.O.@.    ",
"    .%%%.....@...@@..   ",
"   ...%%%%%%%%@@@@.++.  ",
"  .+.+............+###. ",
"  .+.#+++++++++++++###. ",
"  ...####....###+++.... ",
"  .@.....O&&&......%%%. ",
"   ..ooooXXXXXoooXX...  ",
"    .XX.........XX..    ",
"     .@@.       .@@.    ",
"      ...        ...    "
};
