/* XPM */
static char *corner_ul[] = {
/* columns rows colors chars-per-pixel */
"32 32 10 1 ",
"  c #33323D",
". c #335F61",
"X c #5A4E73",
"o c #407769",
"O c #639D6D",
"+ c #716B8E",
"@ c #9197B0",
"# c #92C191",
"$ c #A9B6C3",
"% c #92A9CE",
/* pixels */
"%%                              ",
"% #####O########OO#O############",
" oOOOOOOOOOOOOOOOOOOOOOOOOOOOOOO",
" ooooOOOOoo.oooOOOOOO.ooooOOOOOo",
" oooooOOOO oooooOoOOOO ooooOoOOO",
" ooooOoOOO ooooOoOOOOO oooOoOOOO",
" oooOoOOO   oooooOOOO   ooooOOO ",
"% ooooOOO   ooooOoOOO   ooooOOO ",
"%  oooOO  .  ooOoOOO  .  oooOO  ",
" X  oOO  ... ooooOOO ...  oOO  .",
" +X     ..o.. oooOO ..o..     ..",
" +XX   ..ooo.  oOO ..ooo..    .o",
"% +XXX  oooo        ooooo      o",
"%        oo  ..      ooo    ..  ",
"% @@@@@+    ....           .... ",
" $$@@@@@+    ..    .       .... ",
" $$$+++++         ...       ..  ",
" $$++++           ..            ",
" +++++ @@@@+                    ",
"%     $$@@@@+                   ",
"% @@+ $$$@@@+                   ",
" $$@+ $$$++++                   ",
" $$$+ $$+++++       XXX         ",
" $$$+  +++++       XXXXX        ",
" $$+++              XXX         ",
" ++++++                         ",
"%                               ",
" $@@@@+    +++                  ",
" $$@@@@+  @@++X                 ",
" $$+++++  +@XXX                 ",
" ++++++    +XX                  ",
"%                               "
};
