/* XPM */
static char *corner_dr_diagonal_ul[] = {
/* columns rows colors chars-per-pixel */
"32 32 10 1 ",
"  c #33323D",
". c #335F61",
"X c #5A4E73",
"o c #407769",
"O c #639D6D",
"+ c #716B8E",
"@ c #9197B0",
"# c #92C191",
"$ c #A9B6C3",
"% c #92A9CE",
/* pixels */
"                               %",
"###O#O##         XXX    +@@@@@ %",
"OOOOOOOO#       XXXXX  +@@@@@$$ ",
"o.oooOOOO        XXX   +++++$$$ ",
" oooooOOO              ++++++$$ ",
" ooooOoOO               +++++++ ",
"  ooOoOOO                      %",
"  ooooOOO              +@@@@@@ %",
".  oooOO              +@@@@@@$$ ",
"... oOO               +@@@@@$$$ ",
"o...                  ++++++$$$ ",
"ooo.             X+    ++++++$$ ",
"ooo             X+++    +++++++ ",
"oo              XX+@@          %",
"                 X@@@    +@@@@$ ",
"           X      X@    +@@@@$$ ",
"   .      XXX           +++++$$ ",
"  ...     XXXX           ++++++ ",
"  ..       XXX   +@@           %",
"            X   ++@@@     +@@@@ ",
"                +++@@@   +@@@@$ ",
"                ++++$$@  ++@@$$ ",
"        +++      ++$$$$   +++$$ ",
"  +++  +@@++      +$$$$ +@  +++ ",
" +@+++ @@@+++  ++  +$$ +@@@@   %",
" @@+++ @@@+++ +@++     ++@@@@ %%",
" @@+++ @@@+++ @@++     +++@$$ %%",
" @@+++ @@@+++ @@++ ++++ ++$$$ %%",
" @@$++ @@$$++ @@++ +@@@+ +$$ %%%",
" @$$$+ @$$$$+ @$$+ +@@$$    %%%%",
"  $$$+  $$$$+ $$$+  +$$$ %%%%%%%",
"%%    %%     %    %%    %%%%%%%%"
};
