/* XPM */
static char *corner_ur_diagonal_dl[] = {
/* columns rows colors chars-per-pixel */
"32 32 10 1 ",
"  c #33323D",
". c #335F61",
"X c #5A4E73",
"o c #407769",
"O c #639D6D",
"+ c #716B8E",
"@ c #9197B0",
"# c #92C191",
"$ c #A9B6C3",
"% c #92A9CE",
/* pixels */
"                              %%",
"#######O########OO#O########## %",
"OOOOOOOOOOOOOOOOOOOOOOOOOOOOOO# ",
"o.oooOOOOoo.oooOOOOOO.ooooOOOOO ",
" oooooOOOO oooooOoOOOO ooooOoOO ",
" ooooOoOOO ooooOoOOOOO oooOoOOO ",
"  ooOoOOO   oooooOOOO   ooooOOO ",
"  ooooOOO   ooooOoOOO   ooooOOO ",
".  oooOO  .  ooOoOOO  .  oooOO %",
"... oOO  ... ooooOOO ...  oOO  %",
"o...    ..o.. oooOO ..o..     X ",
"ooo.   ..ooo.  oOO ..ooo..   X+ ",
"ooo     oooo        ooooo  XXX+ ",
"oo       oo  ..      ooo       %",
"            ....         +@@@@$ ",
"             ..         +@@@@$$ ",
"                         ++++$$ ",
"                     +@@@ +++++ ",
"   +X               +@@@$$     %",
"  +++X    X         ++++$$ +@@ %",
" @@+XX   XXX         ++++  +@$$ ",
" @@@X   XXXX              +@$$$ ",
"  @X    XXX              +++$$$ ",
"         X             ++++++$$ ",
"    @@+                 +++++++ ",
"   @@@++                       %",
"  @@@+++               +@@@@@@ %",
" @$$++++   XXX        +@@@@@@$$ ",
" $$$$++   XXXXX       +@@@@@$$$ ",
" $$$$+     XXX        ++++++$$$ ",
"% $$+                 +++++++$$ ",
"%%                     +++++++ %"
};
