/* XPM */
static char *corner_dr[] = {
/* columns rows colors chars-per-pixel */
"32 32 6 1 ",
"  c #33323D",
". c #5A4E73",
"X c #716B8E",
"o c #9197B0",
"O c #A9B6C3",
"+ c #92A9CE",
/* pixels */
"                               +",
"                 ...    Xooooo +",
"                .....  XoooooOO ",
"                 ...   XXXXXOOO ",
"                       XXXXXXOO ",
"                        XXXXXXX ",
"                               +",
"                       Xoooooo +",
"                      XooooooOO ",
"                      XoooooOOO ",
"                      XXXXXXOOO ",
"                 .X    XXXXXXOO ",
"                .XXX    XXXXXXX ",
"                ..Xoo          +",
"                 .ooo    XooooO ",
"  ..       .      .o    XooooOO ",
" ..XX     ...           XXXXXOO ",
" ..XX     ....           XXXXXX ",
" ..XX      ...   Xoo           +",
" XooX       .   XXooo     Xoooo ",
"  Xo            XXXooo   XooooO ",
"                XXXXOOo  XXooOO ",
"        XXX      XXOOOO   XXXOO ",
"  XXX  XooXX      XOOOO Xo  XXX ",
" XoXXX oooXXX  XX  XOO Xoooo   +",
" ooXXX oooXXX XoXX     XXoooo ++",
" ooXXX oooXXX ooXX     XXXoOO ++",
" ooXXX oooXXX ooXX XXXX XXOOO ++",
" ooOXX ooOOXX ooXX XoooX XOO +++",
" oOOOX oOOOOX oOOX XooOO    ++++",
"  OOOX  OOOOX OOOX  XOOO +++++++",
"++    ++     +    ++    ++++++++"
};
