/* XPM */
static const char *DownLeft[] = {
/* columns rows colors chars-per-pixel */
"32 32 6 1 ",
"  c #33323D",
". c #5A4E73",
"X c #716B8E",
"o c #9197B0",
"O c #A9B6C3",
"+ c #92A9CE",
/* pixels */
"+ oooooX                        ",
" OOoooooX                       ",
" OOOooooX   XXXXX               ",
" OOOXXXXX  XooXXX.              ",
" OOXXXXXX  ooo....              ",
" XXXXXXX    X....               ",
"+                               ",
"+ ooooooX                       ",
" OOooooooX                      ",
" OOOoooooX                      ",
" OOOXXXXXX    ..                ",
" OOXXXXXXX   ....               ",
"+ XXXXXXX   ....                ",
"+            ..                 ",
"+ oooooX                        ",
" OOooooo ooX                    ",
" OOOXXX oooXX           .       ",
" OOXXX oooXXX    X.    ...      ",
" XXXX oOOXXXX   XXX.   ...      ",
"+     OOOOXX   ooX..   ...      ",
"++ oX OOOOX    ooo.     .       ",
"+ OOX  OOX      o.              ",
"+ OOoX     X               XXXX ",
"++ XX     XX        XXXX  XooXXX",
"+++  XXXXXX    XX  XooXXX oooXXX",
"+++ oOoooX X  XoXX oooXXX oooXXX",
"+++ OOOoX ooX ooXX oooXXX oooXXX",
"++++ OOXX ooX ooXX oooXXX oooXXX",
"+++++ XX OOoX ooXX ooOOXX ooOOXX",
"++++++   OOOX oOOX oOOOOX oOOOOX",
"+++++++++ OXX OOOX  OOOOX  OOOO ",
"++++++++++   +    ++     ++     "
};
