/* XPM */
static const char *UpperRight[] = {
/* columns rows colors chars-per-pixel */
"33 32 10 1 ",
"  c #33323D",
". c #335F61",
"X c #5A4E73",
"o c #407769",
"O c #639D6D",
"+ c #716B8E",
"@ c #9197B0",
"# c #92C191",
"$ c #A9B6C3",
"% c #92A9CE",
/* pixels */
"########O########OO#O########## %",
"OOOOOOOOOOOOOOOOOOOOOOOOOOOOOOO# ",
"oo.oooOOOOoo.oooOOOOOO.ooooOOOOO ",
"O oooooOOOO oooooOoOOOO ooooOoOO ",
"O ooooOoOOO ooooOoOOOOO oooOoOOO ",
"   ooOoOOO   oooooOOOO   ooooOOO ",
"   ooooOOO   ooooOoOOO   ooooOOO ",
" .  oooOO  .  ooOoOOO  .  oooOO %",
".... oOO  ... ooooOOO ...  oOO  %",
".o...    ..o.. oooOO ..o..     X ",
"oooo.   ..ooo.  oOO ..ooo..   X+ ",
"oooo     oooo        ooooo  XXX+ ",
" oo       oo  ..      ooo       %",
"             ....         +@@@@$ ",
"   .          ...        +@@@@$$ ",
"  ...                     ++++$$ ",
"   ..                 +@@@ +++++ ",
"                     +@@@$$     %",
"                     ++++$$ +@@ %",
"                      ++++  +@$$ ",
"                           +@$$$ ",
"                          +++$$$ ",
"                        ++++++$$ ",
"                         +++++++ ",
"                                %",
"                        +@@@@@@ %",
"                  XXX  +@@@@@@$$ ",
"                 XXXXX +@@@@@$$$ ",
"                  XXX  ++++++$$$ ",
"                       +++++++$$ ",
"                        +++++++ %",
"                                %"
};
