/* XPM */
static char *Chest[] = {
/* columns rows colors chars-per-pixel */
"32 32 12 1 ",
"  c #33323D",
". c #944B4B",
"X c #AE7764",
"o c #D9946B",
"O c #7B7BAB",
"+ c #94A2BD",
"@ c #C2A083",
"# c #EAC088",
"$ c #F4DFA7",
"% c #BBD0DC",
"& c white",
"* c #92A9CE",
/* pixels */
"********************************",
"********************************",
"********************************",
"********************************",
"********************************",
"********************************",
"********************************",
"**  *                      *  **",
"* $$ @@@@X@@@XX@X@@@@@@@@@X $$ *",
"* $$ XXXXXXXXXXXXXXXXXXXXX. $$ *",
"* ## ..XXXXXXXXXXXXX.X..X.  ## *",
"* $$ XXXX@@X@XXXXXXXXXXXXX. $$ *",
"* ## ......X.XXXXXXXXXXXXX. ## *",
"* ## XXXXXXXXXXX@@XXXXXXXX. ## *",
"* ##  .X.XXXXXXX...X.XXX.   ## *",
"* oo .XXXXXXXXXXXXXXXXXXX.. oo *",
"*    ......................    *",
"* ++%                      +%% *",
"* +O+ #####o +%+%&& o####o OO+ *",
"* O O oooooo ++  +% oooooo O O *",
"*            ++  ++            *",
"* oo         O    +         oo *",
"* ## . ..... OOOOOO . .. .. ## *",
"* ## X.XXXXX.      .X.XXXX. ## *",
"* ## XXXX.XXX.......@.X.XX. ## *",
"* ## X.XX.@XXXXXXXX.@XXXXX. ## *",
"* oo XXXXXXXXX.XXXXXXXX.XX. oo *",
"*    XXXX.@XXX.X.XX.XXX.XX.    *",
"* +%%                      ++% *",
"* OO+ o#######$#$$$####o#o +O+ *",
"* O O oooooooooooooooooooo O O *",
"**                            **"
};
