/* XPM */
static char *floor_diagonal_dr[] = {
/* columns rows colors chars-per-pixel */
"32 32 10 1 ",
"  c #33323D",
". c #92C191",
"X c #639D6D",
"o c #407769",
"O c #335F61",
"+ c #5A4E73",
"@ c #716B8E",
"# c #9197B0",
"$ c #A9B6C3",
"% c white",
/* pixels */
"                                ",
".......X........XX.X............",
"XXXXXXXXXXXXXXXXXXXXXXXXXXXXXXXX",
"oOoooXXXXooOoooXXXXXXOooooXXXXXo",
" oooooXXXX oooooXoXXXX ooooXoXXX",
" ooooXoXXX ooooXoXXXXX oooXoXXXX",
"  ooXoXXX   oooooXXXX   ooooXXX ",
"  ooooXXX   ooooXoXXX   ooooXXX ",
"O  oooXX  O  ooXoXXX  O  oooXX  ",
"OOO oXX  OOO ooooXXX OOO  oXX  O",
"oOOO    OOoOO oooXX OOoOO     OO",
"oooO   OOoooO  oXX OOoooOO    Oo",
"ooo     oooo        ooooo      o",
"oo       oo  OO      ooo    OO  ",
"            OOOO           OOOO ",
"    O        OO            OOOO ",
"   OOO                +     OO  ",
"    OO               +++        ",
"                     ++++       ",
"                      +++       ",
"                       +        ",
"                          @##   ",
"                         @@@##  ",
"                         @@@@$# ",
"                          @@$$$ ",
"                           @@$  ",
"                         @      ",
"                         @@   @ ",
"                   +++   @@@@@##",
"                  +++++   @@##$$",
"                   +++     @@$$$",
"                            @@$ "
};
