/* XPM */
static const char *_4[] = {
/* columns rows colors chars-per-pixel */
"32 32 7 1 ",
"  c #33323D",
". c #C25F62",
"X c #D88571",
"o c #DAAB76",
"O c #F7EC9B",
"+ c white",
"@ c #92A9CE",
/* pixels */
"@@@@@@@@@@@@@@@@@@@@@@@@@@@@@@@@",
"@@@@@@@@@@@@@@@@@@@@@@@@@@@@@@@@",
"@@@@@@@@@@@@@@@@@@@@@@@@@@@@@@@@",
"@@@@@@@@@@@@@@@@@@@@@@@@@@@@@@@@",
"@@@@@@@@@@@@@@@@@@@@@@@@@@@@@@@@",
"@@@@@@@@@@@@@@@@@@@@@@@@@@@@@@@@",
"@@@@@@@@@@@@@@@@@@@@@@@@@@@@@@@@",
"@@@@@@@@@@@@@@@@@@@@@@@@@@@@@@@@",
"@@@@@@@@@@@@@@@@@@@@@@@@@@@@@@@@",
"@@@@@@@@@@@@@@@@@@@@@@@@@@@@@@@@",
"@@@@@@@@@@@@@@@@@@@@@@@@@@@@@@@@",
"@@@@@@@@@@@@@@@  o@@@@@@@@@@@@@@",
"@@@@@@@@@@@@@@ OO+o@@@@@@@@@@@@@",
"@@@@@@@@@@@@@ OXXX+o@@@@@@@@@@@@",
"@@@@@@@@@@@@@ O...O @@@@@@@@@@@@",
"@@@@@@@@@@@@@ O.o.O @@@@@@@@@@@@",
"@@@@@@@@@@@@@ O.o.O @@@@@@@@@@@@",
"@@@@@@@@@@@@@ O...O @@@@@@@@@@@@",
"@@@@@@@@@@@@@ O.o.O @@@@@@@@@@@@",
"@@@@@@@@@@@@@ OXooO @@@@@@@@@@@@",
"@@@@@@@@@@@@@@ OOO @@@@@@@@@@@@@",
"@@@@@@@@@@@@@@@   @@@@@@@@@@@@@@",
"@@@@@@@@@@@@@@@@@@@@@@@@@@@@@@@@",
"@@@@@@@@@@@@@@@@@@@@@@@@@@@@@@@@",
"@@@@@@@@@@@@@@@@@@@@@@@@@@@@@@@@",
"@@@@@@@@@@@@@@@@@@@@@@@@@@@@@@@@",
"@@@@@@@@@@@@@@@@@@@@@@@@@@@@@@@@",
"@@@@@@@@@@@@@@@@@@@@@@@@@@@@@@@@",
"@@@@@@@@@@@@@@@@@@@@@@@@@@@@@@@@",
"@@@@@@@@@@@@@@@@@@@@@@@@@@@@@@@@",
"@@@@@@@@@@@@@@@@@@@@@@@@@@@@@@@@",
"@@@@@@@@@@@@@@@@@@@@@@@@@@@@@@@@"
};
