/* XPM */
static char *corner3sidesD[] = {
/* columns rows colors chars-per-pixel */
"32 32 6 1 ",
"  c #33323D",
". c #5A4E73",
"X c #716B8E",
"o c #9197B0",
"O c #A9B6C3",
"+ c #92A9CE",
/* pixels */
"+ oooooX                       +",
" OOoooooX               Xooooo +",
" OOOooooX   XXXXX      XoooooOO ",
" OOOXXXXX  XooXXX.     XXXXXOOO ",
" OOXXXXXX  ooo....     XXXXXXOO ",
" XXXXXXX    X....       XXXXXXX ",
"+                              +",
"+ ooooooX              Xoooooo +",
" OOooooooX            XooooooOO ",
" OOOoooooX            XoooooOOO ",
" OOOXXXXXX            XXXXXXOOO ",
" OOXXXXXXX             XXXXXXOO ",
"+ XXXXXXX         .X    XXXXXXX ",
"+                .XXX          +",
"+ oooX ooooX     ..Xoo   XooooO ",
" OOoX OOooooX     .ooo  XooooOO ",
" OOOX OOXXXXX      .o   XXXXXOO ",
" OOXX  XXXXX             XXXXXX ",
" XXXXX           Xoo           +",
"+               XXooo     Xoooo ",
"++ OoooX        XXXooo   XooooO ",
"+ OOoooX        XXXXOOo  XXooOO ",
"+ OOoXX oo       XXOOOO   XXXOO ",
"++ XX  oooX       XOOOO Xo  XXX ",
"+++  oooooX    XX  XOO Xoooo   +",
"+++ oOoooX X  XoXX     XXoooo ++",
"+++ OOOoX ooX ooXX     XXXoOO ++",
"++++ OOXX ooX ooXX XXXX XXOOO ++",
"+++++ XX OOoX ooXX XoooX XOO +++",
"++++++   OOOX oOOX XooOO    ++++",
"+++++++++ OXX OOOX  XOOO +++++++",
"++++++++++   +    ++    ++++++++"
};
