/* XPM */
static char *veritacal[] = {
/* columns rows colors chars-per-pixel */
"32 32 10 1 ",
"  c #33323D",
". c #335F61",
"X c #5A4E73",
"o c #407769",
"O c #639D6D",
"+ c #716B8E",
"@ c #9197B0",
"# c #92C191",
"$ c #A9B6C3",
"% c #92A9CE",
/* pixels */
"                                ",
"#######O########OO#O############",
"OOOOOOOOOOOOOOOOOOOOOOOOOOOOOOOO",
"o.oooOOOOoo.oooOOOOOO.ooooOOOOOo",
" oooooOOOO oooooOoOOOO ooooOoOOO",
" ooooOoOOO ooooOoOOOOO oooOoOOOO",
"  ooOoOOO   oooooOOOO   ooooOOO ",
"  ooooOOO   ooooOoOOO   ooooOOO ",
".  oooOO  .  ooOoOOO  .  oooOO  ",
"... oOO  ... ooooOOO ...  oOO  .",
"o...    ..o.. oooOO ..o..     ..",
"ooo.   ..ooo.  oOO ..ooo..    .o",
"ooo     oooo        ooooo      o",
"oo       oo  ..      ooo    ..  ",
"            ....           .... ",
"             ..            .... ",
"   XX    .              XX  ..  ",
"  XX++  ...            XX++     ",
"  XX++   ..            XX++     ",
"  XX++         ++      +@@+     ",
"  +@@+        ++@@      +@      ",
"   @+         ++@@              ",
"        +++   ++@@   +++        ",
"       ++@@+  ++$@  ++@@+  ++++ ",
"  ++  +++@@@  +$$$ +++@@@ +++@@+",
" ++@+ +++@@@   +$  +++@@@ +++@@@",
" ++@@ +++@@@ +     +++@@@ +++@@@",
" ++@@ +++@@@ ++  + +++@@@ +++@@@",
" ++@@ ++$$@@ ++++@ ++$$@@ ++$$@@",
" +$$@ +$$$$@ +$$@@ +$$$$@ +$$$$@",
" +$$$ +$$$$  +$$$   $$$$  +$$$$ ",
"%    %     %%    %%%    %%     %"
};
