/* XPM */
static const char *Ground_01_flip[] = {
/* columns rows colors chars-per-pixel */
"26 28 11 1 ",
"  c #92A9CE",
". c #33323D",
"X c #68538A",
"o c #7B7BAB",
"O c white",
"+ c #D06C63",
"@ c #CD897C",
"# c #DE9970",
"$ c #EAC088",
"% c #EEBC9D",
"& c #EED878",
/* pixels */
"                          ",
"                          ",
"                          ",
"                          ",
"                          ",
"       ............       ",
"      .ooooooooooXX.      ",
"     .oo.........oXX.     ",
"     .o.OOOOOOOOO.XX.     ",
"     .o.O...O...O.XX.     ",
"     .o.O...O...O.XX.     ",
"     .oo.OOOOOOO.oXX.     ",
"...  .oo.OXXOXXO.oXX.  ...",
".oo..XXoXoooooooXXX....oo.",
".o.oooooooooooooooooooo.o.",
".ooo..................ooo.",
" ......+++++++++.OO...... ",
"    .@.##$$$$##+....@.    ",
"    .%%.######+.O.O.@.    ",
"    .%%%.......@...@@..   ",
"   ...%%%%%%%%%%@@@@.++.  ",
"  .+.+..............+###. ",
"  .+.#+++......++++++###. ",
"  .......OO&&&&.......... ",
"  .@.ooooXXXXXXXooXX.%%%. ",
"   ..XX..........XX.....  ",
"     .@@@.       .@@@.    ",
"      ....        ....    "
};
