/* XPM */
static const char *Ground_02[] = {
/* columns rows colors chars-per-pixel */
"24 28 11 1 ",
"  c #33323D",
". c #D06C63",
"X c #CD897C",
"o c #DE9970",
"O c #EED878",
"+ c #68538A",
"@ c #7B7BAB",
"# c #EEBC9D",
"$ c #EAC088",
"% c white",
"& c #92A9CE",
/* pixels */
"&&&&&&&&&&&&&&&&&&&&&&&&",
"&&&&&&&          &&&&&&&",
"&&&&&& ++@@@@@@@@ &&&&&&",
"&&&&& ++@       @@ &&&&&",
"&&&&& ++ %%%%%%% @ &&&&&",
"&&&&& ++ %  %  % @ &&&&&",
"&&&&& ++ %  %  % @ &&&&&",
"&&&&& ++@ %%%%% @@ &&&&&",
"&&&&& ++@ %+%+% @@ &&&&&",
"&&&&& ++@@@@@@@@@@ &&&&&",
"   && ++@@@@@@@@@@ &&   ",
" @@    +++@@@@@+@++  @@ ",
" @ @@@@@@@@@@@@@@@@@@ @ ",
" @@@                @@@ ",
"&          .....       &",
"&&&& X %% .oooooo X &&&&",
"&&&& X    .oo$$oo X &&&&",
"&&&& X % % .oooo ## &&&&",
"&&&  XX   X     ### &&&&",
"&& .. XXXX########   &&&",
"& oo..            . . &&",
"& ooo......    ...o . &&",
"&          OOO%       &&",
"& ###++@@@+++++@@@@ X &&",
"&&   ++@         @@  &&&",
"&&&&  ++ &&&&&& +++ &&&&",
"&&&& XX &&&&&&& XX &&&&&",
"&&&&   &&&&&&&&   &&&&&&"
};
