/* XPM */
static const char *DownRight[] = {
/* columns rows colors chars-per-pixel */
"32 32 6 1 ",
"  c #33323D",
". c #5A4E73",
"X c #716B8E",
"o c #9197B0",
"O c #A9B6C3",
"+ c #92A9CE",
/* pixels */
"                                ",
"                  ...    Xooooo ",
"                 .....  XoooooOO",
"                  ...   XXXXXOOO",
"                        XXXXXXOO",
"                         XXXXXXX",
"                                ",
"                        Xoooooo ",
"                       XooooooOO",
"                       XoooooOOO",
"                       XXXXXXOOO",
"                  .X    XXXXXXOO",
"                 .XXX    XXXXXXX",
"                 ..Xoo          ",
"                  .ooo    XooooO",
"   ..       .      .o    XooooOO",
"  ..XX     ...           XXXXXOO",
"  ..XX     ....           XXXXXX",
"  ..XX      ...   Xoo           ",
"  XooX       .   XXooo     Xoooo",
"   Xo            XXXooo   XooooO",
"                 XXXXOOo  XXooOO",
"         XXX      XXOOOO   XXXOO",
"   XXX  XooXX      XOOOO Xo  XXX",
"X XoXXX oooXXX  XX  XOO Xoooo   ",
"o ooXXX oooXXX XoXX     XXoooo +",
"o ooXXX oooXXX ooXX     XXXoOO +",
"o ooXXX oooXXX ooXX XXXX XXOOO +",
"o ooOXX ooOOXX ooXX XoooX XOO ++",
"o oOOOX oOOOOX oOOX XooOO    +++",
"   OOOX  OOOOX OOOX  XOOO ++++++",
"+++    ++     +    ++    +++++++"
};
