/* XPM */
static const char *_sideV[] = {
/* columns rows colors chars-per-pixel */
"32 32 6 1 ",
"  c #33323D",
". c #5A4E73",
"X c #716B8E",
"o c #9197B0",
"O c #A9B6C3",
"+ c #92A9CE",
/* pixels */
"+ oooooX          XXXX         +",
" OOoooooX        .XXXoo  Xoooo +",
" OOOooooX        ....oX XooooOO ",
" OOOXXXXX         ...X  XXXXOOO ",
" OOXXXXXX               XXXXXOO ",
" XXXXXXX ooooX           XXXXXX ",
"+       OOooooX                +",
"+ ooooX OOXXXXX        Xoooooo +",
" OOoooX  XXXXX        XooooooOO ",
" OOOoooX              XoooooOOO ",
" OOOXXXXX             XXXXXXOOO ",
" OOXXXXXXX            XXXXXXXOO ",
"+ XXXXXXX              XXXXXXXX ",
"+                              +",
"+ oooooX                 XooooO ",
" OOoooooX  XXXX         XooooOO ",
" OOOXXXXX XoXXX.        XXXXXOO ",
" OOXXXXXX oo....         XXXXXX ",
" XXXXXXX   X...                +",
"+                       Xooooo +",
"+ ooooooX              XoooooOO ",
" OOooooooX             XooooOOO ",
" OOOoooooX       ...   XXXXXOOO ",
" OOOXXXXXX      .....  XXXXXXOO ",
" OOXXXXXXX       ...    XXXXXXX ",
" XXXXXXXX                      +",
"+                     Xooooooo +",
" OooooX        XXX   XoooooooOO ",
" OOooooX      .XXoX  XooooooOOO ",
" OOXXXXX      ...oo  XXXXXXXOOO ",
" XXXXXX        ..X   XXXXXXXXOO ",
"+                     XXXXXXXX +"
};
