/* XPM */
static char *diagonal_ul_dr[] = {
/* columns rows colors chars-per-pixel */
"32 32 10 1 ",
"  c #33323D",
". c #92C191",
"X c #639D6D",
"o c #407769",
"O c #335F61",
"+ c #5A4E73",
"@ c #716B8E",
"# c #9197B0",
"$ c #A9B6C3",
"% c white",
/* pixels */
"                                ",
"...X.X..                        ",
"XXXXXXXX.                       ",
"oOoooXXXX                       ",
" oooooXXX                       ",
" ooooXoXX                       ",
"  ooXoXXX                       ",
"  ooooXXX                       ",
"O  oooXX                        ",
"OOO oXX                         ",
"oOOO                            ",
"oooO                            ",
"ooo   O                         ",
"oo   OOO                        ",
"     OO                         ",
"                                ",
"                                ",
"                    +           ",
"                   +++          ",
"                   ++++         ",
"                    +++         ",
"                     +    @##   ",
"                         @@@##  ",
"                         @@@@$# ",
"                          @@$$$ ",
"                           @@$  ",
"                         @      ",
"                         @@   @ ",
"                   +++   @@@@@##",
"                  +++++   @@##$$",
"                   +++     @@$$$",
"                            @@$ "
};
