/* XPM */
static char *diagonal_left_ur[] = {
/* columns rows colors chars-per-pixel */
"32 32 10 1 ",
"  c #33323D",
". c #335F61",
"X c #5A4E73",
"o c #407769",
"O c #639D6D",
"+ c #716B8E",
"@ c #9197B0",
"# c #92C191",
"$ c #A9B6C3",
"% c #92A9CE",
/* pixels */
"                                ",
"###O#O##                ##O#O###",
"OOOOOOOO#              #OOOOOOOO",
"o.oooOOOO              OooOOOOOo",
" oooooOOO              ooooOoOOO",
" ooooOoOO              oooOoOOOO",
"  ooOoOOO               ooooOOO ",
"  ooooOOO               ooooOOO ",
".  oooOO                 oooOO  ",
"... oOO                   oOO  .",
"o...                          ..",
"ooo.                          .o",
"ooo   .                    .   o",
"oo   ...                  ...   ",
"     ..                   ..    ",
"                                ",
"                                ",
"          X                     ",
"   +X    XXX                    ",
"  +++X  XXXX                    ",
" @@+XX  XXX                     ",
" @@@X    X                      ",
"  @X                            ",
"                                ",
"    @@+                         ",
"   @@@++                        ",
"  @@@+++                        ",
" @$$++++                        ",
" $$$$++   XXX                   ",
" $$$$+   XXXXX                  ",
"% $$+     XXX                   ",
"%%                              "
};
