/* XPM */
static char *diagonal_dr[] = {
/* columns rows colors chars-per-pixel */
"32 32 6 1 ",
"  c #33323D",
". c #5A4E73",
"X c #716B8E",
"o c #9197B0",
"O c #A9B6C3",
"+ c #92A9CE",
/* pixels */
"                                ",
"                                ",
"                                ",
"                                ",
"                                ",
"                                ",
"                                ",
"                                ",
"                                ",
"                                ",
"                                ",
"                                ",
"                                ",
"                                ",
"                                ",
"                                ",
"                                ",
"                                ",
"   X.                           ",
"  XXX.    .                     ",
" ooX..   ...                    ",
" ooo.   ....                    ",
"  o.    ...                     ",
"         .                      ",
"    ooX                         ",
"   oooXX                        ",
"  oooXXX   ...                  ",
" oOOXXXX  .....                 ",
" OOOOXX    ...                  ",
" OOOOX                          ",
"+ OOX                           ",
"++                              "
};
