/* XPM */
static const char *diagonalDL[] = {
/* columns rows colors chars-per-pixel */
"32 32 5 1 ",
"  c #33323D",
". c #5A4E73",
"X c #716B8E",
"o c #9197B0",
"O c #A9B6C3",
/* pixels */
"                                ",
"                                ",
"                                ",
"                                ",
"                                ",
"                                ",
"                                ",
"                                ",
"                                ",
"                                ",
"                                ",
"                                ",
"                                ",
"                                ",
"                                ",
"                                ",
"                                ",
"                    .           ",
"                   ...          ",
"                   ....         ",
"                    ...         ",
"                     .    Xoo   ",
"                         XXXoo  ",
"                         XXXXOo ",
"                          XXOOO ",
"                           XXO  ",
"                         X      ",
"                         XX   X ",
"                   ...   XXXXXoo",
"                  .....   XXooOO",
"                   ...     XXOOO",
"                            XXO "
};
